# xmcd
#
# Track frame offsets: 
#        150
#        13912
#        26520
#        42202
#        59102
#        70062
#        84360
#        102687
#        120677
#        130057
#        151240
#        162202
#        177122
#        187190
#        206325
#        221407
#        244332
#        259355
#
# Disc length: 3771 seconds
#
# Revision: 2
# Processed by: cddbd v1.4PL0 Copyright (c) Steve Scherf et al.
# Submitted via: ExactAudioCopy v0.90b4
#
DISCID=040eb912
DTITLE=Mary McCaslin - Things We Said Today
DYEAR=1900
DGENRE=Country
TTITLE0=Things We Said Today
TTITLE1=Northfield
TTITLE2=Wayward Wind
TTITLE3=Prairie In The Sky
TTITLE4=San Bernadino Waltz
TTITLE5=The Dealers
TTITLE6=Ghost Riders In The Sky
TTITLE7=Cole Younger
TTITLE8=Living Without You
TTITLE9=Circle Of Friends
TTITLE10=Blackbird
TTITLE11=The Bramble And The Rose
TTITLE12=Last Cannonball
TTITLE13=Way Out West
TTITLE14=My World Is Empty Without You
TTITLE15=Young Westly
TTITLE16=Back To Salinas
TTITLE17=Old Friends
EXTD=
EXTT0=
EXTT1=
EXTT2=
EXTT3=
EXTT4=
EXTT5=
EXTT6=
EXTT7=
EXTT8=
EXTT9=
EXTT10=
EXTT11=
EXTT12=
EXTT13=
EXTT14=
EXTT15=
EXTT16=
EXTT17=
PLAYORDER=
